<svg xmlns="http://www.w3.org/2000/svg" viewBox="0 0 48 48">
  <defs><linearGradient id="g" x1="0" y1="0" x2="1" y2="1"><stop stop-color="#2563eb"/><stop offset="1" stop-color="#1d4ed8"/></linearGradient></defs>
  <circle cx="24" cy="24" r="22" fill="url(#g)"/>
  <path fill="#fff" d="M17.1 12.9c.7-.5 1.7-.4 2.3.2l4 4.8c.5.6.5 1.5 0 2.1l-2.1 2.7c1.4 3.1 3.9 5.6 7 7l2.7-2.1c.6-.5 1.5-.5 2.1 0l4.8 4c.7.6.8 1.6.2 2.3l-2.1 2.7c-.7.9-1.8 1.4-3 1.3-11.5-.9-20.8-10.2-21.7-21.7-.1-1.2.4-2.3 1.3-3l2.5-2.1Z"/>
</svg>
